HIERARCHY
ROOT Hips
{
	OFFSET 0.000000 0.000000 0.000000
	CHANNELS 6 Xposition Yposition Zposition Zrotation Yrotation Xrotation 
	JOINT LHipJoint
	{
		OFFSET 0.000000 0.000000 0.000000
		CHANNELS 3 Zrotation Yrotation Xrotation
		JOINT LeftUpLeg
		{
			OFFSET 1.363060 -1.794630 0.839290
			CHANNELS 3 Zrotation Yrotation Xrotation
			JOINT LeftLeg
			{
				OFFSET 2.448110 -6.726130 0.000000
				CHANNELS 3 Zrotation Yrotation Xrotation
				JOINT LeftFoot
				{
					OFFSET 2.562200 -7.039590 0.000000
					CHANNELS 3 Zrotation Yrotation Xrotation
					JOINT LeftToeBase
					{
						OFFSET 0.157640 -0.433110 2.322550
						CHANNELS 3 Zrotation Yrotation Xrotation
						End Site
						{
							OFFSET 0.000000 0.000000 0.000000
						}
					}
				}
			}
		}
	}
	JOINT RHipJoint
	{
		OFFSET 0.000000 0.000000 0.000000
		CHANNELS 3 Zrotation Yrotation Xrotation
		JOINT RightUpLeg
		{
			OFFSET -1.305520 -1.794630 0.839290
			CHANNELS 3 Zrotation Yrotation Xrotation
			JOINT RightLeg
			{
				OFFSET -2.542530 -6.985550 0.000000
				CHANNELS 3 Zrotation Yrotation Xrotation
				JOINT RightFoot
				{
					OFFSET -2.568260 -7.056230 0.000000
					CHANNELS 3 Zrotation Yrotation Xrotation
					JOINT RightToeBase
					{
						OFFSET -0.164730 -0.452590 2.363150
						CHANNELS 3 Zrotation Yrotation Xrotation
						End Site
						{
							OFFSET 0.000000 0.000000 0.000000
						}
					}
				}
			}
		}
	}
}
MOTION
Frames: 11
Frame Time: 0.008333
-4.641075 16.868851 1.276917 137.637379 -78.483413 -123.397863 -8.335141 3.677316 4.326545 -24.749898 -6.300480 -8.333084 -3.339439 0.038697 18.894039 0.558996 0.886517 -10.032701 -0.176000 0.000001 -33.760200 11.585205 0.559064 2.859408 -5.527357 -0.881090 -40.391081 -0.793247 -3.580375 60.941722 -2.464613 -9.886388 -17.341222 1.382901 -0.000000 -21.041900
-4.893139 16.993564 1.282806 138.885476 -78.997730 -124.541601 -8.614063 3.797730 4.368691 -23.827548 -5.985984 -6.633305 -3.194109 -0.039334 16.283299 0.409161 1.061216 -6.587293 0.031599 -0.000000 -37.787100 11.212844 0.547325 3.059495 -4.436964 -0.211476 -40.441820 -0.538485 -3.254950 56.780024 -2.492420 -9.663106 -16.627401 1.206600 -0.000000 -21.064000
-5.147402 17.118854 1.285839 140.341666 -79.542080 -125.889124 -8.917549 3.941269 4.388432 -22.809232 -5.555668 -5.078288 -3.039427 -0.073816 13.830886 0.253610 1.013480 -2.908222 0.222500 -0.000001 -42.036100 10.837101 0.476375 3.280114 -3.311362 0.552991 -40.260842 -0.282702 -2.909114 52.259645 -2.468256 -9.253161 -15.594193 0.954100 -0.000000 -21.470200
-5.402884 17.242359 1.285812 142.105434 -80.106547 -127.550319 -9.246796 4.107343 4.366279 -21.690673 -4.947174 -3.700307 -2.881694 -0.060743 11.623165 0.097655 0.656033 0.927035 0.332900 0.000000 -46.495400 10.460449 0.344036 3.524828 -2.160076 1.434356 -39.837706 -0.023664 -2.542638 47.402794 -2.380373 -8.661265 -14.175903 0.630100 0.000000 -22.629400
-5.658428 17.361291 1.281371 144.056522 -80.662713 -129.407089 -9.582581 4.287997 4.297398 -20.528090 -4.181155 -2.513413 -2.730449 -0.004780 9.736972 -0.044049 -0.035004 4.774807 0.292600 -0.000000 -50.514600 10.097224 0.160383 3.794377 -1.041234 2.406774 -39.196447 0.242135 -2.158703 42.266256 -2.217982 -7.893937 -12.339297 0.253500 0.000000 -24.719800
-5.912978 17.473530 1.272738 146.223706 -81.197693 -131.501993 -9.922361 4.475741 4.169845 -19.334192 -3.231226 -1.528486 -2.587644 0.088708 8.239369 -0.160125 -1.079069 8.523604 0.039200 0.000000 -54.000900 9.751706 -0.065089 4.085262 0.028522 3.461909 -38.341631 0.518864 -1.758027 36.902005 -1.980557 -7.001585 -10.046208 -0.149500 -0.000000 -27.989400
-6.165788 17.576831 1.259171 148.373532 -81.689931 -133.604241 -10.246514 4.659243 3.990207 -18.174033 -2.155786 -0.730249 -2.455841 0.207658 7.162637 -0.236884 -2.396144 12.053548 -0.444900 0.000000 -56.624400 9.439638 -0.310645 4.386432 0.996878 4.534908 -37.320638 0.809918 -1.348482 31.426433 -1.672323 -6.013955 -7.338057 -0.537900 -0.000000 -32.196000
-6.416038 17.669613 1.240897 150.320233 -82.134622 -135.543120 -10.543961 4.829387 3.765883 -17.085122 -0.998726 -0.093514 -2.332789 0.340962 6.516645 -0.267405 -3.862554 15.275912 -1.128200 0.000000 -58.367400 9.170842 -0.553252 4.678131 1.849343 5.556015 -36.182296 1.116177 -0.942087 25.992354 -1.307607 -4.960625 -4.301461 -0.866600 -0.000001 -36.908400
-6.663431 17.750815 1.218686 151.909331 -82.537017 -137.178579 -10.806031 4.980660 3.508634 -16.091499 0.191559 0.419994 -2.213835 0.479124 6.287712 -0.251313 -5.303201 18.125726 -1.924800 -0.000000 -59.294999 8.951896 -0.770753 4.932485 2.602658 6.440728 -34.983840 1.434266 -0.556760 20.792948 -0.906963 -3.849548 -1.063176 -1.090799 0.000000 -41.633900
-6.907754 17.819913 1.193373 152.980788 -82.908082 -138.364965 -11.024309 5.110561 3.235611 -15.212923 1.354168 0.849763 -2.093382 0.615370 6.443820 -0.193897 -6.502084 20.567158 -2.701600 -0.000001 -59.530200 8.786313 -0.946258 5.119115 3.298172 7.091816 -33.798081 1.756439 -0.214123 16.046181 -0.492973 -2.657914 2.215153 -1.167400 0.000000 -45.884800
-7.149712 17.877068 1.166164 153.519946 -83.264140 -139.083790 -11.198615 5.220842 2.964925 -14.443208 2.443222 1.210637 -1.964099 0.746207 6.951770 -0.103355 -7.254017 22.585019 -3.310500 0.000000 -59.275900 8.668720 -1.076322 5.221202 4.002608 7.447474 -32.696115 2.071994 0.069922 11.920804 -0.090763 -1.380290 5.395854 -1.071600 0.000000 -49.500400
